<svg width="24" height="26" viewBox="0 0 24 26" fill="none" xmlns="http://www.w3.org/2000/svg">
<g filter="url(#filter0_d)">
<path fill-rule="evenodd" clip-rule="evenodd" d="M6.75 3.75C6.33579 3.75 6 4.08579 6 4.5V15C6 15.4142 6.33579 15.75 6.75 15.75H17.25C17.6642 15.75 18 15.4142 18 15V4.5C18 4.08579 17.6642 3.75 17.25 3.75H6.75ZM4.5 4.5C4.5 3.25736 5.50736 2.25 6.75 2.25H17.25C18.4926 2.25 19.5 3.25736 19.5 4.5V15C19.5 16.2426 18.4926 17.25 17.25 17.25H6.75C5.50736 17.25 4.5 16.2426 4.5 15V4.5Z" fill="#333333"/>
<path fill-rule="evenodd" clip-rule="evenodd" d="M15 0.75C15.4142 0.75 15.75 1.08579 15.75 1.5V4.5C15.75 4.91421 15.4142 5.25 15 5.25C14.5858 5.25 14.25 4.91421 14.25 4.5V1.5C14.25 1.08579 14.5858 0.75 15 0.75Z" fill="#333333"/>
<path fill-rule="evenodd" clip-rule="evenodd" d="M9 0.75C9.41421 0.75 9.75 1.08579 9.75 1.5V4.5C9.75 4.91421 9.41421 5.25 9 5.25C8.58579 5.25 8.25 4.91421 8.25 4.5V1.5C8.25 1.08579 8.58579 0.75 9 0.75Z" fill="#333333"/>
<path fill-rule="evenodd" clip-rule="evenodd" d="M4.5 7.5C4.5 7.08579 4.83579 6.75 5.25 6.75H18.75C19.1642 6.75 19.5 7.08579 19.5 7.5C19.5 7.91421 19.1642 8.25 18.75 8.25H5.25C4.83579 8.25 4.5 7.91421 4.5 7.5Z" fill="#333333"/>
</g>
<defs>
<filter id="filter0_d" x="-1" y="0" width="26" height="26" filterUnits="userSpaceOnUse" color-interpolation-filters="sRGB">
<feFlood flood-opacity="0" result="BackgroundImageFix"/>
<feColorMatrix in="SourceAlpha" type="matrix" values="0 0 0 0 0 0 0 0 0 0 0 0 0 0 0 0 0 0 127 0"/>
<feOffset dy="4"/>
<feGaussianBlur stdDeviation="2"/>
<feColorMatrix type="matrix" values="0 0 0 0 0 0 0 0 0 0 0 0 0 0 0 0 0 0 0.25 0"/>
<feBlend mode="normal" in2="BackgroundImageFix" result="effect1_dropShadow"/>
<feBlend mode="normal" in="SourceGraphic" in2="effect1_dropShadow" result="shape"/>
</filter>
</defs>
</svg>
