<svg width="28" height="29" viewBox="0 0 28 29" fill="none" xmlns="http://www.w3.org/2000/svg">
<g filter="url(#filter0_d)">
<path d="M21.1666 10.5405H23.0833C23.0833 5.6243 19.3717 1.9165 14.4487 1.9165V3.83317C18.3415 3.83317 21.1666 6.65355 21.1666 10.5405Z" fill="#BDBDBD"/>
<path d="M14.4584 7.66682C16.4737 7.66682 17.3334 8.52644 17.3334 10.5418H19.25C19.25 7.45119 17.549 5.75015 14.4584 5.75015V7.66682ZM17.7378 12.883C17.5536 12.7157 17.3116 12.6264 17.0629 12.6341C16.8142 12.6418 16.5782 12.7458 16.4047 12.9242L14.1114 15.2827C13.5594 15.1773 12.4497 14.8313 11.3074 13.6919C10.165 12.5486 9.81907 11.4359 9.71653 10.8878L12.0731 8.59352C12.2517 8.42019 12.3559 8.18414 12.3636 7.93535C12.3713 7.68655 12.2819 7.44452 12.1143 7.26048L8.57323 3.36677C8.40557 3.18216 8.17254 3.07017 7.92363 3.0546C7.67473 3.03904 7.42956 3.12111 7.24019 3.2834L5.16061 5.06686C4.99492 5.23314 4.89603 5.45445 4.88269 5.68881C4.86832 5.9284 4.59423 11.6037 8.9949 16.0062C12.834 19.8444 17.6429 20.1252 18.9673 20.1252C19.1609 20.1252 19.2797 20.1194 19.3114 20.1175C19.5457 20.1044 19.7669 20.005 19.9324 19.8386L21.7149 17.7581C21.8773 17.5688 21.9595 17.3237 21.9441 17.0748C21.9287 16.8259 21.8169 16.5928 21.6324 16.425L17.7378 12.883Z" fill="#BDBDBD"/>
</g>
<defs>
<filter id="filter0_d" x="-2" y="0" width="31" height="31" filterUnits="userSpaceOnUse" color-interpolation-filters="sRGB">
<feFlood flood-opacity="0" result="BackgroundImageFix"/>
<feColorMatrix in="SourceAlpha" type="matrix" values="0 0 0 0 0 0 0 0 0 0 0 0 0 0 0 0 0 0 127 0"/>
<feOffset dy="4"/>
<feGaussianBlur stdDeviation="2"/>
<feColorMatrix type="matrix" values="0 0 0 0 0 0 0 0 0 0 0 0 0 0 0 0 0 0 0.25 0"/>
<feBlend mode="normal" in2="BackgroundImageFix" result="effect1_dropShadow"/>
<feBlend mode="normal" in="SourceGraphic" in2="effect1_dropShadow" result="shape"/>
</filter>
</defs>
</svg>
